# xmcd CD database file
#
# Track frame offsets:
#	150
#	20158
#	35670
#	50885
#	78110
#	89623
#	110583
#	121548
#	136135
#	152978
#
# Disc length: 2287 seconds
#
# Revision: 0
# Processed by: cddbd v1.5.2PL0 Copyright (c) Steve Scherf et al.
# Submitted via: CDex 1.70beta3
#
DISCID=8208ed0a
DTITLE=Stanley Turrentine - The Look Of Love
DYEAR=1968
DGENRE=Jazz
TTITLE0=The Look Of Love
TTITLE1=Here There And Everywhere
TTITLE2=A Beautiful Friendship
TTITLE3=Blues For Stan
TTITLE4=This Guy's In Love With You
TTITLE5=MacArthur Park
TTITLE6=I'm Always Drunk In San Francisco
TTITLE7=Emily
TTITLE8=Cabin In The Sky
TTITLE9=Smile
EXTD=YEAR: 1968
EXTT0=
EXTT1=
EXTT2=
EXTT3=
EXTT4=
EXTT5=
EXTT6=
EXTT7=
EXTT8=
EXTT9=
PLAYORDER=
